<?xml version="1.0" encoding="iso-8859-1"?><!-- Generator: Adobe Illustrator 21.1.0, SVG Export Plug-In . SVG Version: 6.00 Build 0)  --><svg xmlns="http://www.w3.org/2000/svg" xmlns:xlink="http://www.w3.org/1999/xlink" viewBox="0 0 50 50" width="500px" height="500px"><path style="fill-rule:evenodd;clip-rule:evenodd;fill:none;stroke:#000000;stroke-width:2;stroke-miterlimit:10;" d="M30.375,16.125c-0.294-0.8-0.378-1.701-0.375-2.5C30.02,8.715,35.165,4.157,39.505,4c3.023,1.49,5.62,5.4,5.49,10.707C44.6,21.246,39.5,26.75,34,32C34,24.5,30.375,16.125,30.375,16.125z"/><path style="fill-rule:evenodd;clip-rule:evenodd;fill:none;stroke:#000000;stroke-width:2;stroke-miterlimit:10;" d="M26.918,26.581L26.711,27c-0.746,1.348-1.725,2.811-3.001,4.414c-2.336,2.974-4.688,7.604-4.709,13.086c-0.003,0.815,0.045,1.649,0.153,2.499C30.236,45.765,33.696,37.362,34,32.745V32"/><path style="fill-rule:evenodd;clip-rule:evenodd;fill:none;stroke:#000000;stroke-width:2;stroke-miterlimit:10;" d="M34,31.875c0-6.875-2.86-12.209-6.125-16.5C23.94,10.203,17.625,7,11.5,7C9.375,7,7.168,7.431,5.043,8.263C5.014,8.622,5,8.994,5,9.375c0.003,4.844,2.412,11.283,10.398,13.44c3.628,1.063,6.176,1.697,8.921,2.707c3.682,1.354,6.307,3.229,9.557,6.354H34z"/></svg>